<?xml version="1.0" encoding="utf-8"?>
<!-- Generator: Adobe Illustrator 23.0.3, SVG Export Plug-In . SVG Version: 6.00 Build 0)  -->
<svg version="1.1" id="Layer_1" xmlns="http://www.w3.org/2000/svg" xmlns:xlink="http://www.w3.org/1999/xlink" x="0px" y="0px"
	 viewBox="0 0 288 288" style="enable-background:new 0 0 288 288;" xml:space="preserve">
<style type="text/css">
	.st0{fill:#FCFCFC;}
	.st1{fill:#3A3A3A;}
	.st2{fill:#383838;}
	.st3{fill:#393939;}
	.st4{display:none;}
	.st5{display:inline;fill:#EED94E;}
	.st6{display:inline;fill:#323330;}
	.st7{display:inline;fill:#247100;}
	.st8{display:inline;fill:#1E6000;}
	.st9{display:inline;fill:#404001;}
	.st10{display:inline;fill:#6E6A1B;}
	.st11{display:inline;fill:#9C9543;}
	.st12{display:inline;fill:#0080CA;}
	.st13{display:inline;fill:#00AFFE;}
	.st14{display:inline;}
	.st15{display:inline;fill:#00B8F0;}
	.st16{display:inline;fill:#D5FE00;}
	.st17{display:inline;fill:#34E17A;}
	.st18{display:inline;fill:#61D9FA;}
</style>
<g>
	<rect x="23.86" y="113" class="st0" width="244.71" height="95.14"/>
	<path class="st1" d="M98.77,142.29c-3.87,5.11-7.22,9.92-11,14.37c-2.09,2.47-1.8,4.06,0.14,6.38c4.09,4.9,7.87,10.06,11.83,15.17
		c-1.66,0.95-2.1-0.45-2.72-1.24c-3.55-4.53-7.19-8.99-10.51-13.68c-1.71-2.42-2.53-1.78-3.95,0.15
		c-3.33,4.56-6.87,8.96-10.25,13.48c-0.91,1.22-1.89,1.73-3.45,1.72c-10.02-0.07-20.04-0.08-30.06,0c-1.96,0.02-2.78-0.33-2.76-2.57
		c0.1-15.14,0.06-30.28,0.06-45.42c0-1.28-0.22-2.56,1.83-2.54c10.13,0.06,20.26,0.03,30.38,0.04c0.53,0,1.09,0.01,1.23,0.8
		c-0.77,1.25-2.07,0.67-3.13,0.67c-8.53,0.05-17.06,0.15-25.58-0.05c-2.76-0.06-3.37,0.81-3.27,3.4c0.21,5.11,0.27,10.24-0.02,15.34
		c-0.17,3,0.9,3.46,3.57,3.4c7.78-0.18,15.56-0.08,23.35-0.05c1.08,0,2.26-0.3,3.55,0.64c-1.21,1.02-2.39,0.7-3.45,0.7
		c-8.1,0.03-16.21,0.09-24.31-0.03c-2.08-0.03-2.72,0.52-2.67,2.64c0.14,6.29,0.11,12.58,0.01,18.87c-0.03,1.93,0.28,2.82,2.56,2.78
		c9.49-0.14,18.98-0.11,28.46-0.01c1.4,0.02,2.11-0.54,2.84-1.5c3.63-4.74,7.2-9.51,10.96-14.15c1.22-1.51,0.9-2.44-0.15-3.79
		c-3.29-4.19-6.45-8.47-9.64-12.74c-0.59-0.79-1.45-1.47-1.54-2.65c1.78-0.34,2.12,1.05,2.76,1.89c3.15,4.16,6.31,8.32,9.32,12.58
		c1.18,1.68,1.79,1.47,2.89-0.04c3.07-4.22,6.26-8.35,9.45-12.49C96.16,143.51,96.61,142.27,98.77,142.29z"/>
	<path class="st1" d="M131.8,149.47c-2.61-5.33-7.19-8.04-13.16-7.98c-6.74,0.06-11.23,3.68-14.18,9.65
		c-0.21-1.55-0.11-3.01-0.24-4.44c-0.13-1.44,0.61-3.08-0.96-4.76v48.78c0.26,0.01,0.52,0.01,0.78,0.01v-20.56
		c0.22-0.03,0.45-0.06,0.67-0.09c0.24,0.43,0.51,0.85,0.73,1.29c2.66,5.27,7,7.78,12.84,7.91c6.02,0.15,10.57-2.4,13.3-7.68
		C135.33,164.33,135.39,156.8,131.8,149.47z M131.27,169.04c-2.25,5.62-6.7,8.85-12.4,8.91c-6.12,0.06-11.03-3.08-13.14-8.82
		c-2.13-5.8-2.17-11.7,0.28-17.45c2.41-5.66,7.63-9.06,13.26-8.8c5.95,0.27,10.31,3.75,12.41,9.85c0.84,2.45,1.02,5,1.22,7.55
		C132.71,163.27,132.4,166.22,131.27,169.04z"/>
	<path class="st2" d="M161.18,160.63c7.36,0.21,14.72,0.07,22.07,0.07c5.96,0,5.96,0.01,4.86-5.93
		c-1.28-6.95-5.95-11.86-12.37-13.01c-6.51-1.16-12.68,1.63-16,7.44c-2.92,5.11-3.5,10.62-2.43,16.38c1.86,10,7.39,14.38,17.4,13.64
		c7.31-0.54,12.86-6.1,13.06-13.43c-0.98,0.48-1.3,1-1.4,1.64c-1.07,6.86-7.31,11.6-16.5,10.36c-6.42-0.87-10.18-5.67-11.4-13.89
		C158.11,161.51,158.41,160.56,161.18,160.63z M158.38,157.98c1.03-10.24,8.48-16.61,17.55-14.74c6.38,1.32,11.35,7.84,11.12,14.5
		c-0.06,1.67-0.88,1.61-2,1.6c-4.26-0.01-8.51,0-12.77,0c-4.04-0.01-8.08,0.01-12.12-0.02
		C159.29,159.32,158.21,159.68,158.38,157.98z"/>
	<path class="st3" d="M225.68,166.23c1.17,0.33,0.93,1.08,0.99,1.65c0.49,4.69,2.72,8.13,7.41,9.31c5.42,1.37,10.89,1.58,15.33-2.62
		c3.61-3.42,2.68-8.78-1.72-11.32c-3.1-1.78-6.68-2.07-10.02-3.11c-1.92-0.6-3.87-1.15-5.78-1.77c-3.02-0.98-4.8-3.03-5.2-6.22
		c-0.42-3.34,0.64-6.08,3.33-8.14c4.58-3.5,13.91-3.39,18.37,0.19c2.33,1.87,3.23,4.41,3.51,7.26c0.06,0.6,0.32,1.39-0.65,1.45
		c-0.69,0.04-0.69-0.61-0.83-1.12c-2.21-8.24-11.92-11.79-19.08-6.97c-2.29,1.54-3.46,3.71-3.26,6.51c0.22,3,1.87,4.95,4.69,5.8
		c4.07,1.23,8.2,2.25,12.25,3.53c3.62,1.14,7.1,2.63,7.8,7.03c0.73,4.63-1.34,8.49-5.74,10.26c-5.28,2.12-10.66,1.97-15.84-0.31
		C226.91,175.73,224.79,171.1,225.68,166.23z"/>
	<path class="st3" d="M193.24,166.01c0.4,0.43,0.62,0.56,0.66,0.73c1.96,9.94,10.97,14.33,20.17,9.8c2.99-1.47,4.87-3.76,4.81-7.27
		c-0.06-3.46-2.12-5.6-5.12-6.62c-4.42-1.5-9.01-2.49-13.45-3.93c-4.71-1.52-6.38-3.79-6.38-8c0-3.74,2.32-6.89,6.35-8.29
		c4.38-1.53,8.8-1.39,13.09,0.38c3.87,1.59,5.56,4.75,5.88,8.77c0.04,0.5,0.24,1.16-0.49,1.29c-0.94,0.17-0.88-0.62-1.03-1.23
		c-2-8.3-13.02-11.86-19.7-6.39c-4.29,3.52-3.35,9.88,1.91,11.75c4.1,1.45,8.39,2.34,12.53,3.68c3.71,1.21,7.26,2.78,7.7,7.45
		c0.44,4.63-1.53,8.12-5.9,9.85c-5.18,2.05-10.46,1.9-15.55-0.28C194.27,175.8,191.95,170.77,193.24,166.01z"/>
	<path class="st2" d="M142.3,150.29c3.5-6.69,8.32-9.48,14.09-8.44c0.12,0.96-0.57,1.02-1.21,1.02c-6.79,0.02-12.65,4.85-13,14.46
		c-0.24,6.48-0.06,12.98-0.08,19.47c0,0.6,0.14,1.26-0.92,2.11c0-12.45,0-24.5,0-36.55C142.67,144.72,141.73,147.35,142.3,150.29z"
		/>
</g>
<g class="st4">
	<path class="st5" d="M146.23,14.75c43.2,0,86.39,0,129.59,0c1.87,0,1.64-0.24,1.64,1.68c0,86.44,0,172.87,0,259.31
		c0,1.91,0.2,1.68-1.65,1.68c-86.48,0-172.95,0-259.43,0c-1.87,0-1.63,0.22-1.63-1.69c0-86.44,0-172.87,0-259.31
		c0-1.91-0.24-1.67,1.64-1.67C59.67,14.75,102.95,14.75,146.23,14.75z"/>
	<path class="st6" d="M216.76,256.64c-11.44-0.12-21.29-2.22-30.17-7.89c-6.49-4.15-11.5-9.67-15.16-16.43
		c-0.38-0.7-0.31-1.01,0.41-1.42c6.1-3.49,12.19-7.01,18.25-10.57c0.85-0.5,1.16-0.28,1.62,0.45c2.84,4.49,6.22,8.48,11.02,10.98
		c6.68,3.48,13.68,3.98,20.8,1.66c3.93-1.28,7.06-3.73,8.15-7.93c1.27-4.89-0.16-9.04-4.14-12.23c-2.55-2.05-5.49-3.44-8.43-4.81
		c-5.61-2.62-11.43-4.78-16.98-7.54c-5.7-2.83-11.04-6.17-15.37-10.94c-4.7-5.17-7.27-11.27-8.06-18.16
		c-0.7-6.17-0.33-12.23,2.12-18.02c3.47-8.22,9.49-13.94,17.78-17.05c11.38-4.26,22.85-4.11,34.08,0.57
		c7.4,3.08,12.5,8.81,16.51,15.6c0.31,0.52,0.2,0.76-0.29,1.08c-5.96,3.81-11.91,7.63-17.85,11.47c-0.58,0.38-0.82,0.24-1.14-0.31
		c-1.21-2.1-2.57-4.1-4.39-5.73c-4.84-4.32-10.46-5.29-16.39-3.04c-8.09,3.07-7.78,13.04-3.63,17.27c1.81,1.84,3.95,3.18,6.21,4.34
		c5.07,2.61,10.42,4.6,15.6,6.97c6.14,2.81,12.13,5.89,17.38,10.21c6.99,5.76,10.95,13.13,11.82,22.17
		c0.66,6.88,0.1,13.56-2.95,19.86c-4.16,8.57-11.22,13.73-20.04,16.72C228.03,255.78,221.93,256.66,216.76,256.64z"/>
	<path class="st6" d="M157.47,180c0,14.33,0.16,28.65-0.06,42.98c-0.12,7.61-2.18,14.8-6.85,21.02
		c-4.55,6.06-10.74,9.62-18.02,11.27c-9.85,2.23-19.6,1.97-29.05-1.87c-8.89-3.61-15.13-10.08-19.38-18.59
		c-0.27-0.54-0.25-0.83,0.31-1.17c6.24-3.75,12.47-7.52,18.68-11.31c0.66-0.4,0.88-0.2,1.2,0.37c1.38,2.47,2.89,4.85,4.7,7.05
		c5.04,6.13,13.78,5.56,18.18,3.29c3.39-1.75,4.65-4.94,5.29-8.45c0.39-2.14,0.47-4.3,0.47-6.47c-0.01-27.11,0.01-54.22-0.04-81.34
		c0-1.34,0.39-1.6,1.64-1.59c7.25,0.06,14.49,0.05,21.74,0c1.07-0.01,1.29,0.31,1.28,1.32c-0.03,14.49-0.02,28.99-0.02,43.48
		C157.52,180,157.5,180,157.47,180z"/>
</g>
<g class="st4">
	<path class="st7" d="M137.54,235.04c-3.19-2.58-6.4-5.12-9.4-7.93c-16.34-15.28-28.59-33.21-35.3-54.7
		c-2.2-7.06-3.52-14.28-4.3-21.63c-0.65-6.08-0.67-12.14-0.22-18.2c1.34-17.87,5.15-35.15,12.64-51.52
		c8.08-17.68,19.17-33.1,34.25-45.53c3.7-3.05,5.85-6.99,5.95-11.97c1.87,3.95,3.73,7.83,5.76,11.62c0.7,1.76,1.72,3.36,2.94,4.76
		c1.52,1.74,3.11,3.43,4.7,5.12c3.69,3.92,7.5,7.76,10.75,12.05c1.79,2.36,3.76,4.58,5.36,7.12c1.63,2.59,3.6,5.01,5.07,7.7
		c1.35,2.47,3.1,4.77,3.64,7.64c0.08,0.42,0.36,0.87-0.13,1.16c-0.42,0.25-0.77-0.06-0.97-0.39c-0.61-1-1.45-0.97-2.39-0.64
		c-0.79,0.28-1.61,0.28-2.44,0.27c-1.02-0.01-2.01,0.08-3,0.36c-1.19,0.35-2.4,0.36-3.54-0.21c-1.14-0.57-2.1-0.33-3.1,0.38
		c-1.52,1.09-3.3,1.77-5.13,1.72c-2.71-0.07-5.17,1.07-7.83,1.19c-0.85,0.04-1.7,0.3-2.57,0.34c-2.15,0.11-3.78,2.03-3.47,4.13
		c0.32,2.21,0.19,4.44,0.17,6.65c-0.06,4.58,0.35,9.18-0.04,13.74c-0.26,3.01,0.37,5.98,0.04,8.95c-0.7,6.4-0.38,12.82-0.2,19.21
		c0.28,9.85,0.28,19.7,0.15,29.54c-0.09,7.09-0.14,14.19-0.59,21.26c-0.43,6.78-0.65,13.59-1.64,20.33
		c-0.08,0.52-0.06,1.06-0.04,1.59c0.12,3.43-0.68,6.77-0.95,10.17c-0.34,4.22-1.15,8.38-2.01,12.52
		C139.43,233.1,139.3,234.68,137.54,235.04z"/>
	<path class="st8" d="M142.24,209.12c-0.15-2.28,0.33-4.51,0.65-6.72c0.33-2.3,0.19-4.6,0.44-6.9c0.49-4.54,0.51-9.12,0.73-13.68
		c0.13-2.79,0.08-5.58,0.21-8.37c0.48-10.56,0.44-21.13,0.21-31.69c-0.14-6.56,0.04-13.12-0.29-19.66
		c-0.13-2.47,0.63-4.81,0.41-7.27c-0.25-2.75,0.13-5.56,0.08-8.28c-0.12-5.83,0.05-11.67-0.13-17.49c-0.02-0.67-0.27-1.33-0.26-1.99
		c0.02-0.99-0.45-2.39,1.43-2.25c0.07,0.01,0.2-0.1,0.22-0.17c0.51-1.77,2.02-1.07,3.17-1.4c2.03-0.59,4.22-0.15,6.17-1.2
		c0.91-0.49,2-0.12,3-0.19c1.97-0.13,3.81-0.61,5.41-1.84c1.08-0.83,2.16-1.13,3.42-0.25c0.92,0.64,2.12,0.56,3.08,0.21
		c1.04-0.39,2.06-0.43,3.11-0.43c1.01,0,1.98-0.01,2.97-0.42c0.9-0.38,1.95-0.45,2.24,0.95c0.06,0.29,0.29,0.64,0.58,0.48
		c0.45-0.25,0.13-0.54-0.11-0.79c-0.28-0.28-0.51-0.63-0.48-1.02c0.18-1.88-1-3.17-2.03-4.47c-0.58-0.73-0.48-1.61-0.98-2.4
		c-1.17-1.85-2.2-3.9-3.6-5.47c-2.12-2.38-3.3-5.4-5.76-7.57c-1.41-1.25-2.14-3.29-3.54-4.73c-0.43-0.45-0.83-0.9-1.32-1.3
		c-1.54-1.23-3.08-2.48-3.8-4.44c-0.11-0.29-0.42-0.52-0.66-0.76c-2.46-2.51-5.02-4.94-7.34-7.57c-1.16-1.31-1.88-3-2.79-4.52
		c-0.03-0.05,0.15-0.21,0.23-0.32c3.91,6.73,10,11.58,15.02,17.36c10.22,11.77,18.2,24.88,24.08,39.3c3.57,8.76,6.42,17.75,8.39,27
		c1.13,5.33,1.55,10.76,1.88,16.2c0.38,6.38,0.2,12.73-0.41,19.08c-0.92,9.59-3.04,18.9-6.38,27.93
		c-4.49,12.14-10.9,23.19-19.15,33.16c-5.1,6.15-10.73,11.77-17.09,16.62c-0.53,0.41-1.11,0.76-1.67,1.13
		c-1.35,0.47-2.07-0.51-2.81-1.29c-1.76-1.86-2.77-4.15-3.58-6.53c-1.58-4.6-1.9-9.42-2.46-14.19c-0.12-1.05-0.04-1.15,0.32-2.02
		C142.77,208.96,142.56,209.25,142.24,209.12z"/>
	<path class="st9" d="M142.24,209.12c0.47-0.32,0.83-0.68,0.89,0.36c0.27,5.16,0.81,10.3,2.35,15.26c0.76,2.44,1.83,4.75,3.57,6.67
		c0.68,0.75,1.43,1.43,2.52,1.52c-3.49,4.15-3.79,9.23-4.11,14.29c-0.02,0.24-0.03,0.48-0.04,0.72c0.11,2.91-1.92,5.15-2.48,7.88
		c-0.42,2.07-1.47,3.97-1.95,6.04c-0.09,0.4-0.07,1.05-0.83,0.92c-0.99,0.03-0.85-0.67-0.85-1.3c0.02-6.42-0.5-12.79-1.71-19.11
		c-0.48-2.51-1.3-4.92-2.06-7.34c1.64-1.31,1.72-3.27,2.08-5.1c0.86-4.29,1.41-8.6,1.85-12.96
		C141.73,214.37,142.18,211.76,142.24,209.12z"/>
	<path class="st10" d="M142.16,262.79c0.9-2.66,1.78-5.32,2.71-7.97c0.55-1.56,0.78-3.27,2.05-4.54c0.61-0.61-0.09-1.63,0.5-2.33
		c0.01,3.77,0.02,7.54,0.03,11.31c-0.58,1.3-0.95,2.67-1.28,4.05c-0.06,0.26,0.11,0.76-0.48,0.61
		C144.41,263.83,143.3,263.28,142.16,262.79z"/>
	<path class="st11" d="M145.68,263.93c0.4-1.63,0.43-3.39,1.76-4.67c0.29,1.17,0.22,2.36,0.22,3.54
		C147.68,264.73,147.6,264.77,145.68,263.93z"/>
</g>
<g class="st4">
	<path class="st12" d="M206.1,157.55c0,1.12-0.06,1.98-1.25,2.67c-19.59,11.24-39.12,22.55-58.67,33.84
		c-0.3,0.17-0.62,0.28-0.91,0.42c-0.77,0.54-1.43,0.12-2.07-0.24c-9.13-5.16-18.18-10.46-27.25-15.75
		c-0.54-0.31-1.33-0.57-0.89-1.51c7.28-4.25,14.55-8.54,21.85-12.76c12.32-7.16,24.67-14.29,37.03-21.39
		c1.17-0.67,1.71-1.34,1.7-2.79c-0.06-10.48-0.04-20.96-0.04-31.45v-1.92c-2.07,1.18-3.93,2.23-5.78,3.3
		c-17.78,10.26-35.57,20.55-53.35,30.81c-0.57,0.32-1.07,0.85-1.82,0.8c-0.67-0.79-0.66-1.75-0.66-2.69
		c-0.01-9.86-0.01-19.73,0.01-29.59c0-0.93-0.12-1.91,0.66-2.67c30.36-17.55,60.72-35.09,91.41-52.82v2
		C206.09,89.73,206.07,123.65,206.1,157.55z"/>
	<path class="st13" d="M114.67,106.64c0,11.64-0.01,23.29-0.01,34.95c-1.53-0.37-2.76-1.36-4.09-2.14
		c-18.39-10.61-36.78-21.25-55.17-31.87c-0.45-0.26-0.91-0.5-1.61-0.88v69.95c-0.85,0.17-1.3-0.32-1.79-0.62
		c-9.09-5.23-18.16-10.49-27.25-15.71c-1.04-0.59-1.53-1.21-1.53-2.5c0.04-34.25,0.03-68.52,0.03-102.79v-1.25
		C53.88,71.5,84.27,89.06,114.67,106.64z"/>
	<path class="st12" d="M267.01,125.99c0.03,22.34,0,44.68,0.05,67.01c0,1.26-0.4,1.92-1.47,2.54c-29.45,16.97-58.9,34-88.35,50.99
		c-0.5,0.3-0.95,0.77-1.64,0.7c-0.67-0.8-0.66-1.75-0.66-2.7c-0.01-9.85-0.01-19.71,0.01-29.58c0-0.93-0.12-1.92,0.64-2.67
		c19.68-11.37,39.33-22.75,59.03-34.06c1.51-0.86,1.97-1.78,1.96-3.48c-0.08-10.29,0.01-20.58-0.09-30.87
		c-0.01-1.6,0.54-2.37,1.87-3.13c9.44-5.38,18.85-10.84,28.25-16.26C267.3,124.91,267.01,125.51,267.01,125.99z"/>
	<path class="st13" d="M175.61,212.28v34.95c-0.75,0.05-1.24-0.49-1.8-0.81c-19.08-11.01-38.14-22.05-57.24-33.02
		c-1.39-0.79-1.96-1.64-1.94-3.3c0.09-10.34,0.04-20.69,0.06-31.05c0-0.68-0.36-1.49,0.37-2.07c1.27,1.76,3.35,2.37,5.09,3.4
		c7.87,4.67,15.84,9.18,23.77,13.71c0.4,0.23,0.9,0.26,1.35,0.39c0.42,0.64,1.16,0.9,1.79,1.26
		C156.57,201.26,166.09,206.77,175.61,212.28z"/>
	<path class="st12" d="M267.03,87.28c0,0.93,0.08,1.74-1.02,2.37c-9.57,5.46-19.1,10.98-28.63,16.5c-0.17,0.1-0.37,0.13-0.84,0.28
		V72.54c0-0.62,0.01-1.15,0.67-1.53c9.84-5.65,19.65-11.33,29.53-17.02c0.44,0.57,0.27,1.12,0.27,1.62
		C267.03,66.16,267.02,76.72,267.03,87.28z"/>
</g>
<g class="st4">
	<path class="st14" d="M144.88,260.46c0.01,1.38-0.4,1.68-1.71,1.67c-30.1-0.03-60.2-0.03-90.3,0.01c-1.38,0-1.84-0.26-1.84-1.76
		c0.03-45.81,0.02-91.61,0.02-137.41c0-0.54,0.09-1.09,0.13-1.63c0.8-0.71,1.79-0.61,2.73-0.61c13.66-0.01,27.32-0.02,40.98,0.01
		c1.01,0,2.07-0.08,2.89,0.6c0.07,0.06,0.13,0.12,0.19,0.18c-0.06,0.04-0.14,0.07-0.22,0.09c0.76,8.4,0.35,16.83,0.35,25.24
		c-0.01,21.98,0.36,43.97-0.25,65.95c-0.05,1.97,0.57,2.38,2.42,2.37c10.55-0.08,21.1-0.05,31.65-0.04
		c4.3,0.01,8.61,0.07,12.91,0.11C144.83,230.31,144.82,245.38,144.88,260.46z"/>
	<path class="st15" d="M238.48,121.39c-0.84-0.81-1.91-0.66-2.91-0.66c-13.66-0.01-27.32-0.01-40.98,0c-0.94,0-1.91-0.09-2.75,0.52
		c0,0.01-0.01,0.01-0.01,0.01c-0.01,0.02-0.02,0.03-0.03,0.05c-0.14,0.2-0.13,0.38,0.03,0.55v0.01c0.02,0.03,0.05,0.05,0.08,0.08
		h0.01c5.22,0.01,10.44,0.04,15.66,0.06c-5.17,0.01-10.34,0.01-15.5,0.01c-0.08,0.06-0.16,0.13-0.23,0.19
		c-0.02,0.02-0.04,0.04-0.05,0.06c-1.09,1.05-0.84,2.55-0.99,3.85c-0.59,5.15-1.73,10.12-4.06,14.79
		c-8.11,16.26-21.27,25.12-39.31,26.78c-2.92,0.27-3.17,0.39-3.17,3.28c-0.02,13.91-0.01,27.82-0.01,41.73
		c0,0.51-0.02,1.04,0.08,1.53l0.01,0.02c0.08,0.34,0.22,0.66,0.47,0.95l0.01,0.01c0.01,0,0.01,0,0.02,0
		c8.66-0.11,17.22-1.04,25.52-3.6c32.47-9.97,53.9-31.18,64.26-63.5C237.4,139.45,238.68,130.51,238.48,121.39z M237.34,122.02
		c-4.12,0-8.23,0-12.32-0.01c4.04-0.02,8.08-0.08,12.13-0.18c0-0.01,0-0.01,0-0.02c-0.01-0.11,0.04-0.07,0.1,0
		C237.3,121.9,237.36,122.01,237.34,122.02z"/>
	<path class="st16" d="M144.6,72.08c0,0.55-0.01,1.1-0.2,1.62c-0.17,0.36-0.4,0.57-0.68,0.69c-0.51,0.24-1.13,0.21-1.66,0.39
		c-0.07,0.02-0.14,0.04-0.2,0.07c-1.28,0.57-2.67,0.53-4.02,0.72c-9.96,1.47-18.57,5.8-25.62,12.86
		c-7.63,7.64-12.28,16.89-13.34,27.77c-0.13,1.36-0.45,2.7-0.45,4.08c-0.01,0.44,0.02,0.98-0.46,1.24
		c-0.06,0.04-0.14,0.07-0.22,0.09c-0.95-0.06-1.9-0.17-2.86-0.17c-13.81-0.02-27.63-0.03-41.45-0.04c-0.75,0-1.5-0.04-2.26-0.06
		c-0.18-11.23,1.81-22.11,5.78-32.56c8.79-23.17,24.31-40.43,46.47-51.54c12.73-6.38,26.29-9.63,40.59-9.57
		c0.11,0.11,0.2,0.22,0.27,0.34c0.06,0.09,0.11,0.19,0.14,0.28c0.18,0.47,0.16,0.98,0.16,1.49
		C144.61,43.88,144.61,57.98,144.6,72.08z"/>
	<path class="st17" d="M238.48,121.39h-46.62c-0.02-0.03-0.04-0.05-0.06-0.08c-1.01-1.32-0.78-2.94-0.92-4.41
		c-1-10.16-4.86-18.99-11.75-26.55c-7.85-8.62-17.47-13.69-29.07-14.95c-0.76-0.09-1.48-0.29-2.19-0.54
		c-0.07-0.03-0.15-0.06-0.23-0.08c-0.53-0.18-1.14-0.15-1.64-0.38h-0.01c-0.26-0.12-0.49-0.31-0.66-0.62
		c-0.03-0.1-0.07-0.2-0.09-0.3c-0.25-0.91-0.14-1.84-0.15-2.76c-0.02-14.1,0.02-28.2-0.02-42.3c-0.01-0.09,0-0.18,0.01-0.27
		c0-0.01,0-0.02,0-0.02c0.03-0.17,0.09-0.33,0.18-0.47c15.6-0.08,30.34,3.55,43.92,11.12c27.39,15.26,43.51,38.56,48.46,69.52
		C238.33,112.62,238.78,116.99,238.48,121.39z"/>
</g>
<g class="st4">
	<path class="st18" d="M275.57,134.71c-3.03-6.85-8.15-12-14.02-16.45c-11.42-8.7-24.42-14.16-37.95-18.5
		c-1.99-0.64-2.05-1.36-1.68-3.04c2.11-9.94,3.61-19.94,3.47-30.15c0.14-8.9-0.87-17.6-4.34-25.93
		c-4.36-10.43-12.43-15.81-23.73-15.67c-8.01,0.09-15.29,2.92-22.31,6.47c-11.04,5.61-20.78,13.06-29.83,21.5
		c-0.98,0.92-1.53,0.98-2.57,0c-5.2-4.83-10.69-9.36-16.59-13.35c-10.29-6.99-20.98-13.09-33.7-14.34
		c-9.8-0.95-18.27,2.63-23.47,11.24c-4.8,7.89-6.19,16.71-6.59,25.72c-0.52,11.85,1.13,23.56,3.67,35.12
		c0.32,1.53-0.09,1.94-1.42,2.37c-9.6,2.98-18.87,6.71-27.63,11.68c-7.75,4.36-14.94,9.45-20.46,16.56
		c-7.98,10.35-8.06,21.07-0.26,31.59c3.7,5.03,8.38,8.99,13.47,12.49c10.64,7.28,22.4,12.17,34.63,16.07
		c1.79,0.55,2.25,1.18,1.82,3.03c-2.6,11.5-3.96,23.15-3.5,34.97c0.29,6.97,1.3,13.79,3.96,20.26c4.86,11.88,13.3,17.08,24.74,16.59
		c7.43-0.32,14.37-2.83,20.96-6.13c11.21-5.58,21.07-13.12,30.26-21.56c1.18-1.1,1.85-1.45,3.27-0.12
		c4.68,4.36,9.6,8.44,14.86,12.08c10.41,7.25,21.22,13.67,34.11,15.26c10.09,1.21,18.44-1.76,24.13-10.55
		c4.65-7.17,6.24-15.32,6.76-23.64c0.78-12.66-0.61-25.15-3.47-37.49c-0.35-1.59,0-2.2,1.59-2.69c11.53-3.61,22.63-8.27,32.83-14.91
		c6.71-4.36,12.78-9.42,17.05-16.33C278,149.85,279.01,142.45,275.57,134.71z M154,61.23c6.36-5.69,13.01-11.07,20.29-15.52
		c6.19-3.79,12.6-7.2,19.89-8.27c8.09-1.19,12.43,0.43,15.78,7.98c0.75,1.71,1.33,3.47,1.73,5.26c0.4,1.73,0.84,3.5,1.04,5.26
		c0.38,3.56,0.58,7.11,0.75,9.39c-0.2,10.64-1.42,19.83-3.38,28.96c-0.23,1.04-0.46,1.47-1.73,1.16
		c-10.61-2.57-21.36-4.28-32.2-5.49c-0.92-0.12-1.36-0.61-1.82-1.24c-6.36-8.61-13.04-16.94-20.49-24.63
		C152.76,62.97,152.67,62.39,154,61.23z M81.51,179.42c1.97-6.85,4.31-13.56,7.11-20.55c4.57,8.96,9.54,17.28,15,25.87
		c-5.29-0.98-10.15-1.85-14.97-2.77c-2.11-0.38-4.19-0.9-6.27-1.36C81.77,180.46,81.25,180.32,81.51,179.42z M82.38,107.34
		c6.39-1.53,12.83-2.66,19.31-3.76c0.38-0.06,0.95-0.12,1.18,0.09c0.4,0.35-0.06,0.78-0.26,1.1c-4.97,7.66-9.39,15.67-13.61,23.73
		c-0.09,0.14-0.26,0.26-0.55,0.49c-0.84-2.23-1.68-4.39-2.49-6.56c-1.62-4.42-3.09-8.87-4.48-13.38
		C81.19,108.03,81.19,107.62,82.38,107.34z M95.41,145.17c-0.35-0.72-0.32-1.3,0-1.99c6.62-14.16,14.42-27.6,23.18-40.52
		c0.49-0.72,1.04-1.19,2.02-1.24c5.9-0.32,11.76-0.69,17.69-0.84c8.24-0.17,16.45,0.14,24.68,0.49c1.47,0.09,2.95,0.29,4.45,0.32
		c1.01,0.03,1.45,0.69,1.94,1.39c6.71,9.86,12.98,20.03,18.41,30.67c1.56,3.03,3.01,6.1,4.57,9.1c0.49,0.95,0.49,1.68,0.03,2.66
		c-6.59,13.96-14.25,27.29-22.92,40.03c-0.64,0.95-1.39,1.39-2.49,1.45c-7.69,0.43-15.35,1.01-23.07,0.78
		c-7.72,0.2-15.38-0.35-23.07-0.75c-0.92-0.06-1.53-0.35-2.05-1.13C109.95,172.72,102.15,159.25,95.41,145.17z M184.35,103.35
		c7.43,1.07,14.42,2.37,21.36,4.08c0.61,0.14,0.95,0.23,0.72,1.01c-2.02,6.91-4.36,13.67-7.14,20.7
		C194.75,120.2,189.87,111.82,184.35,103.35z M199.32,158.55c1.21,3.15,2.34,5.93,3.32,8.76c1.3,3.82,2.46,7.69,3.79,11.53
		c0.4,1.21,0,1.53-1.07,1.79c-6.68,1.56-13.41,2.77-20.15,3.9c-0.17,0.03-0.32-0.06-0.69-0.14
		C189.84,176.1,194.73,167.66,199.32,158.55z M142.9,72.16c0.52-0.55,0.87-0.98,1.65-0.17c4.83,5.06,9.39,10.29,13.67,15.81
		c0.12,0.14,0.17,0.32,0.43,0.84c-9.91-0.49-19.54-0.35-29.48-0.06c0.81-1.68,1.91-2.83,2.89-4.02
		C135.53,80.31,139.11,76.15,142.9,72.16z M77.26,46.84c0.55-1.45,1.24-2.86,2.05-4.16c2.89-4.8,7.4-5.9,12.54-5.29
		c7.95,0.95,14.94,4.42,21.65,8.5c7.37,4.48,14.05,9.89,20.49,15.61c0.98,0.9,1.01,1.39,0.09,2.37
		c-7.37,7.83-14.25,16.1-20.52,24.83c-0.55,0.81-1.16,1.18-2.17,1.3c-10.69,1.24-21.36,2.86-31.82,5.55
		c-1.16,0.29-1.62-0.06-1.85-1.16c-1.36-6.56-2.51-13.12-3.01-19.8c-0.2-2.6-0.32-5.23-0.35-7.86
		C74.37,59.96,74.89,53.26,77.26,46.84z M69.86,175.81c-0.29,0.92-0.55,1.27-1.59,0.92c-11.21-3.64-22.08-8.09-31.88-14.8
		c-4.39-3.01-8.47-6.39-11.47-10.9c-1.45-2.17-2.43-4.54-2.51-7.17c0.2-3.44,1.79-6.27,3.87-8.87c4.19-5.23,9.6-8.93,15.26-12.28
		c8.27-4.88,17.14-8.38,26.24-11.33c1.19-0.4,1.65-0.2,1.99,1.01c3.04,10.38,6.88,20.46,11.21,30.35c0.43,0.98,0.4,1.73-0.03,2.69
		C76.62,155.32,72.9,165.46,69.86,175.81z M134.63,226.04c-10.41,9.42-21.36,18.01-34.74,22.89c-2.98,1.1-6.07,1.76-9.25,1.94
		c-5.9,0.32-9.89-2.37-12.34-7.66c-1.65-3.61-2.57-7.43-3.09-11.33c-0.46-3.5-0.55-7.02-0.72-9.39c0.23-10.52,1.39-19.77,3.38-28.96
		c0.26-1.1,0.61-1.33,1.65-1.07c7.89,1.91,15.84,3.35,23.87,4.45c2.49,0.35,4.97,0.69,7.46,0.92c1.27,0.12,2.2,0.55,2.98,1.62
		c6.36,8.76,13.27,17.05,20.67,24.92C135.04,224.92,135.47,225.29,134.63,226.04z M144.95,215.78c-0.49,0.55-0.87,0.98-1.56,0.26
		c-4.91-5.29-9.68-10.67-14.39-16.76c10.2,0.52,19.94,0.52,29.94,0.03c-2.6,3.64-5.35,6.82-8.09,10
		C148.94,211.53,146.89,213.62,144.95,215.78z M210.25,242.2c-1.85,4.42-4.6,7.86-9.8,8.32c-3.38,0.29-6.68-0.17-9.91-1.13
		c-7.89-2.31-14.89-6.39-21.56-11.01c-5.32-3.67-10.29-7.78-15.09-12.11c-0.9-0.81-1.01-1.3-0.09-2.23
		c7.4-7.72,14.16-15.98,20.41-24.66c0.78-1.07,1.68-1.47,2.98-1.62c10.15-1.07,20.17-2.77,30.09-5.09c2.6-0.61,2.63-0.64,3.18,1.88
		c1.88,8.82,3.15,17.72,3.09,26.77C213.6,228.47,213.02,235.52,210.25,242.2z M260.48,154.28c-4.86,5.38-10.87,9.28-17.2,12.69
		c-7.43,4.02-15.26,7.02-23.27,9.68c-1.1,0.35-1.53,0.17-1.85-0.95c-2.98-10.35-6.79-20.35-11.13-30.2
		c-0.52-1.16-0.52-2.14,0.03-3.32c4.31-9.71,7.95-19.68,10.95-29.86c0.29-0.98,0.52-1.45,1.68-1.07
		c12.49,4.02,24.51,9.02,35.03,17.08c3.82,2.92,7.25,6.21,9.45,10.58c0.81,1.62,1.33,3.32,1.33,5.55
		C265.28,148.18,263.11,151.36,260.48,154.28z"/>
	<path class="st18" d="M143.65,168.84c13.99,0.03,25.06-10.84,25.09-24.71c0.32-12.69-9.74-24.97-24.74-25.06
		c-13.56-0.09-24.92,10.58-24.94,24.89C119,158.15,130.59,168.81,143.65,168.84z"/>
</g>
</svg>
