<svg id="Layer_1" data-name="Layer 1" xmlns="http://www.w3.org/2000/svg" viewBox="0 0 267.26 238.03"><defs><style>.cls-1{fill:#61d9fa;}</style></defs><title>react</title><path class="cls-1" d="M275.57,134.71c-3-6.85-8.15-12-14-16.45-11.42-8.7-24.42-14.16-38-18.5-2-.63-2-1.36-1.68-3,2.11-10,3.62-20,3.47-30.15.15-8.9-.86-17.6-4.33-25.93C216.69,30.22,208.63,24.84,197.33,25c-8,.08-15.29,2.92-22.32,6.47C164,37.07,154.23,44.53,145.18,53c-1,.92-1.53,1-2.57,0A138.54,138.54,0,0,0,126,39.61c-10.29-7-21-13.09-33.7-14.33-9.8-1-18.27,2.63-23.47,11.24-4.8,7.89-6.19,16.71-6.59,25.73-.52,11.85,1.13,23.55,3.67,35.11.32,1.54-.09,1.94-1.42,2.37a139.52,139.52,0,0,0-27.63,11.68c-7.75,4.37-14.94,9.45-20.46,16.56-8,10.35-8.07,21.07-.26,31.59a54.8,54.8,0,0,0,13.47,12.49c10.63,7.28,22.4,12.17,34.62,16.07,1.8.55,2.26,1.19,1.82,3a134,134,0,0,0-3.49,35,59.11,59.11,0,0,0,4,20.26c4.85,11.88,13.29,17.08,24.74,16.59,7.43-.31,14.36-2.83,21-6.12,11.22-5.58,21.07-13.13,30.27-21.57,1.18-1.1,1.85-1.44,3.26-.11a132.4,132.4,0,0,0,14.86,12.08c10.4,7.25,21.21,13.67,34.11,15.26,10.08,1.21,18.44-1.76,24.13-10.55,4.65-7.17,6.24-15.32,6.76-23.64a130,130,0,0,0-3.46-37.49c-.35-1.59,0-2.2,1.59-2.69,11.53-3.61,22.63-8.27,32.83-14.91,6.71-4.37,12.78-9.43,17.05-16.33C278,149.85,279,142.45,275.57,134.71ZM154,61.23a141.18,141.18,0,0,1,20.29-15.52c6.19-3.78,12.6-7.19,19.89-8.26,8.09-1.19,12.43.43,15.78,8a28.66,28.66,0,0,1,1.73,5.26,45.7,45.7,0,0,1,1,5.26c.38,3.56.58,7.11.75,9.4a146.88,146.88,0,0,1-3.38,29c-.23,1-.46,1.47-1.73,1.16a258.14,258.14,0,0,0-32.2-5.5,2.43,2.43,0,0,1-1.82-1.24A239,239,0,0,0,153.86,64.1C152.76,63,152.67,62.39,154,61.23ZM81.51,179.42a211.73,211.73,0,0,1,7.11-20.55c4.57,9,9.54,17.29,15,25.87-5.29-1-10.14-1.85-15-2.77-2.11-.38-4.19-.9-6.27-1.36C81.77,180.46,81.25,180.32,81.51,179.42Zm.87-72.08c6.38-1.54,12.83-2.66,19.3-3.76.38-.06,1-.12,1.19.08.4.35-.06.79-.26,1.1-5,7.66-9.39,15.67-13.61,23.73a2.62,2.62,0,0,1-.55.49c-.84-2.22-1.68-4.39-2.49-6.56-1.62-4.42-3.09-8.87-4.48-13.38C81.19,108,81.19,107.62,82.38,107.34Zm13,37.83a2.1,2.1,0,0,1,0-2,293.68,293.68,0,0,1,23.18-40.53,2.44,2.44,0,0,1,2-1.24c5.89-.32,11.76-.69,17.69-.84,8.23-.17,16.44.15,24.68.49,1.47.09,2.95.29,4.45.32,1,0,1.45.69,1.94,1.39a287.13,287.13,0,0,1,18.41,30.67c1.56,3,3,6.09,4.57,9.1a2.64,2.64,0,0,1,0,2.66,295.2,295.2,0,0,1-22.92,40,2.9,2.9,0,0,1-2.48,1.45c-7.69.43-15.35,1-23.07.78-7.71.2-15.37-.35-23.06-.75a2.39,2.39,0,0,1-2.06-1.13A299.6,299.6,0,0,1,95.41,145.17Zm88.94-41.82c7.43,1.07,14.42,2.37,21.36,4.07.61.15.95.23.72,1-2,6.91-4.36,13.68-7.14,20.7A274.58,274.58,0,0,0,184.35,103.35Zm15,55.2c1.22,3.15,2.34,5.93,3.33,8.76,1.3,3.82,2.45,7.69,3.78,11.53.41,1.22,0,1.54-1.07,1.8-6.67,1.56-13.41,2.77-20.14,3.9-.18,0-.32-.06-.7-.15A284.11,284.11,0,0,0,199.32,158.55ZM142.9,72.16c.52-.55.87-1,1.65-.17A201.4,201.4,0,0,1,158.22,87.8a5.18,5.18,0,0,1,.43.83c-9.91-.49-19.54-.34-29.48,0a19,19,0,0,1,2.89-4C135.53,80.31,139.11,76.15,142.9,72.16ZM77.26,46.84a24,24,0,0,1,2-4.16c2.89-4.8,7.4-5.9,12.55-5.29,8,1,14.94,4.42,21.65,8.5A143.48,143.48,0,0,1,134,61.49c1,.9,1,1.39.09,2.37a244.81,244.81,0,0,0-20.53,24.83A2.69,2.69,0,0,1,111.4,90a238.93,238.93,0,0,0-31.83,5.55c-1.15.29-1.62-.06-1.85-1.15a152.65,152.65,0,0,1-3-19.8c-.21-2.6-.32-5.23-.35-7.86C74.37,60,74.89,53.26,77.26,46.84Zm-7.4,129c-.29.92-.55,1.27-1.59.92-11.21-3.64-22.08-8.09-31.88-14.8-4.39-3-8.47-6.38-11.47-10.89a13.68,13.68,0,0,1-2.52-7.17A15.55,15.55,0,0,1,26.27,135c4.19-5.24,9.6-8.93,15.26-12.29a129.85,129.85,0,0,1,26.25-11.33c1.18-.4,1.65-.2,2,1A250.85,250.85,0,0,0,81,142.74a3,3,0,0,1,0,2.69A253.15,253.15,0,0,0,69.86,175.81ZM134.63,226c-10.4,9.43-21.36,18-34.74,22.9a31.79,31.79,0,0,1-9.25,1.93c-5.89.32-9.88-2.37-12.34-7.66a39.63,39.63,0,0,1-3.09-11.33c-.46-3.49-.55-7-.72-9.39a148.42,148.42,0,0,1,3.38-29c.26-1.1.6-1.33,1.64-1.07a239.45,239.45,0,0,0,23.88,4.45c2.49.35,5,.69,7.46.92a3.77,3.77,0,0,1,3,1.62,254.37,254.37,0,0,0,20.67,24.92C135,224.92,135.47,225.29,134.63,226ZM145,215.78c-.49.55-.86,1-1.56.26-4.91-5.29-9.68-10.66-14.39-16.76a296.08,296.08,0,0,0,29.94,0c-2.6,3.64-5.34,6.82-8.09,10C148.94,211.53,146.89,213.62,145,215.78Zm65.3,26.42c-1.85,4.42-4.6,7.86-9.8,8.33a27.07,27.07,0,0,1-9.92-1.13c-7.89-2.31-14.88-6.39-21.56-11a147.41,147.41,0,0,1-15.09-12.12c-.89-.8-1-1.3-.08-2.22a227,227,0,0,0,20.4-24.66,3.79,3.79,0,0,1,3-1.61,246.1,246.1,0,0,0,30.09-5.09c2.6-.61,2.63-.64,3.18,1.88a124.18,124.18,0,0,1,3.09,26.76C213.6,228.47,213,235.52,210.25,242.2Zm50.23-87.92c-4.85,5.37-10.87,9.27-17.2,12.68A143.43,143.43,0,0,1,220,176.65c-1.1.34-1.54.17-1.85-1A240.71,240.71,0,0,0,207,145.49a3.66,3.66,0,0,1,0-3.33,244.64,244.64,0,0,0,11-29.85c.29-1,.52-1.45,1.68-1.07,12.48,4,24.51,9,35,17.08,3.82,2.92,7.25,6.21,9.45,10.58a11.82,11.82,0,0,1,1.33,5.55C265.28,148.18,263.11,151.36,260.48,154.28Z" transform="translate(-10.37 -24.99)"/><path class="cls-1" d="M143.65,168.84A24.89,24.89,0,1,0,119.06,144,24.68,24.68,0,0,0,143.65,168.84Z" transform="translate(-10.37 -24.99)"/></svg>